<svg width="60" height="60" viewBox="0 0 60 60" fill="none" xmlns="http://www.w3.org/2000/svg">
<path d="M17.783 4.58312C18.1572 3.47442 19.1969 2.72797 20.367 2.72797H37.5L19.717 55.4183C19.3428 56.527 18.3031 57.2734 17.1329 57.2734H3.79886C1.93304 57.2734 0.61814 55.4419 1.21479 53.674L17.783 4.58312Z" fill="url(#paint0_linear_271_19861)"/>
<path d="M45.1724 38.1818H18.171C17.0365 38.1818 16.4887 39.5715 17.3181 40.3456L34.6684 56.5393C35.1734 57.0106 35.8384 57.2727 36.5292 57.2727H51.8179L45.1724 38.1818Z" fill="#0078D4"/>
<path d="M20.367 2.72797C19.1969 2.72797 18.1572 3.47442 17.783 4.58312L1.21479 53.674C0.61814 55.4419 1.93304 57.2734 3.79886 57.2734H17.1329C18.3031 57.2734 19.3428 56.527 19.717 55.4183L23.0108 45.6589L34.6683 56.5393C35.1733 57.0106 35.8384 57.2727 36.5292 57.2727H51.8178L45.1723 38.1818H25.5343L37.5 2.72797H20.367Z" fill="url(#paint1_linear_271_19861)"/>
<path d="M42.2167 4.58244C41.8425 3.47374 40.8028 2.72729 39.6326 2.72729H20.4542H20.5417C21.7119 2.72729 22.7516 3.47375 23.1258 4.58245L39.694 53.6734C40.2906 55.4412 38.9757 57.2728 37.1099 57.2728H36.8179H56.2008C58.0666 57.2728 59.3815 55.4412 58.7849 53.6734L42.2167 4.58244Z" fill="url(#paint2_linear_271_19861)"/>
<defs>
<linearGradient id="paint0_linear_271_19861" x1="20.2503" y1="4.61598" x2="2.46051" y2="57.1713" gradientUnits="userSpaceOnUse">
<stop stop-color="#114A8B"/>
<stop offset="1" stop-color="#0669BC"/>
</linearGradient>
<linearGradient id="paint1_linear_271_19861" x1="34.4673" y1="38.1882" x2="30.3566" y2="39.5781" gradientUnits="userSpaceOnUse">
<stop stop-opacity="0.3"/>
<stop offset="0.0711768" stop-opacity="0.2"/>
<stop offset="0.321031" stop-opacity="0.1"/>
<stop offset="0.623053" stop-opacity="0.05"/>
<stop offset="1" stop-opacity="0"/>
</linearGradient>
<linearGradient id="paint2_linear_271_19861" x1="31.5285" y1="4.61539" x2="51.0561" y2="56.6417" gradientUnits="userSpaceOnUse">
<stop stop-color="#3CCBF4"/>
<stop offset="1" stop-color="#2892DF"/>
</linearGradient>
</defs>
</svg>
