<svg width="77" height="77" viewBox="0 0 77 77" fill="none" xmlns="http://www.w3.org/2000/svg">
<path d="M12.1515 71.9469L15.6927 70.9991L16.6428 68.9409L22.7799 69.1021L29.1623 67.3938L30.5999 65.1652L36.5719 65.4105L42.8072 63.7416C47.1384 62.5866 48.6062 57.1484 45.43 53.9722L23.0037 31.5219C19.8275 28.3456 14.3893 29.7894 13.2343 34.1447L11.3752 41.0906L11.6355 46.7321L9.51607 48.0364L7.61539 55.1375L7.93387 60.5463L5.85616 61.7101L5.02903 64.8003C3.84997 69.1316 7.82028 73.1019 12.1515 71.9469Z" fill="#F9C23C"/>
<path d="M18.7706 60.283C15.2085 56.9567 12.1745 52.952 9.49552 48.1132L11.366 41.1249C14.4423 47.8572 17.9028 52.8894 22.0542 56.766C26.055 60.5021 30.7941 63.2552 36.6611 65.3867L29.1313 67.4021C25.2768 65.4839 21.8486 63.1574 18.7706 60.283Z" fill="#3F5FFF"/>
<path d="M10.3156 67.1013C8.61282 65.5089 7.14899 63.7254 5.85193 61.7259L7.64425 55.0296C9.33503 58.6153 11.2288 61.3676 13.6019 63.5868C15.9693 65.8007 18.9159 67.5796 22.8374 69.0867L15.6456 71.0117C13.6658 69.8745 11.9021 68.5849 10.3156 67.1013Z" fill="#3F5FFF"/>
<path d="M45.9835 61.8166C49.3522 58.4479 45.1654 48.8229 36.6472 40.3048C28.1291 31.7866 18.5282 27.5998 15.1594 30.9685C11.7907 34.3373 15.9775 43.9623 24.4957 52.4804C33.0138 60.9985 42.6388 65.1613 45.9835 61.8166Z" fill="#6D4534"/>
<path d="M27.9366 17.4935C30.9204 23.076 31.5219 29.4766 29.6691 35.5163C28.1051 40.6657 24.8807 45.021 20.5013 48.0288C19.2501 46.4647 18.1673 44.9007 17.2529 43.3847C20.5976 41.0988 23.0519 37.7782 24.2551 33.856C25.6748 29.26 25.2176 24.3994 22.9557 20.1644C22.2098 18.7688 22.7391 17.0603 24.1107 16.3385C25.5063 15.5925 27.2148 16.1219 27.9366 17.4935Z" fill="#F70A8D"/>
<path d="M53.298 40.2147C57.8475 36.6207 63.7482 35.889 68.8277 37.7834C70.133 38.2702 71.5857 37.6067 72.0725 36.3015C72.5593 34.9962 71.8958 33.5435 70.5905 33.0567C63.9276 30.5718 56.1608 31.5244 50.1709 36.2561C49.0778 37.1196 48.8916 38.7058 49.7552 39.7989C50.6187 40.892 52.2049 41.0782 53.298 40.2147Z" fill="#F70A8D"/>
<path d="M14.4615 23.3166C16.0031 23.3166 17.2528 22.0669 17.2528 20.5253C17.2528 18.9838 16.0031 17.7341 14.4615 17.7341C12.92 17.7341 11.6703 18.9838 11.6703 20.5253C11.6703 22.0669 12.92 23.3166 14.4615 23.3166Z" fill="#F70A8D"/>
<path d="M62.8753 20.5253C62.8753 22.0669 61.6257 23.3166 60.0841 23.3166C58.5425 23.3166 57.2928 22.0669 57.2928 20.5253C57.2928 18.9838 58.5425 17.7341 60.0841 17.7341C61.6257 17.7341 62.8753 18.9838 62.8753 20.5253Z" fill="#F70A8D"/>
<path d="M30.0541 9.52875C30.0541 10.8045 29.0199 11.8387 27.7441 11.8387C26.4683 11.8387 25.4341 10.8045 25.4341 9.52875C25.4341 8.25297 26.4683 7.21875 27.7441 7.21875C29.0199 7.21875 30.0541 8.25297 30.0541 9.52875Z" fill="#F9C23C"/>
<path d="M61.3113 58.7366C61.3113 60.0256 60.2663 61.0706 58.9772 61.0706C57.6881 61.0706 56.6432 60.0256 56.6432 58.7366C56.6432 57.4475 57.6881 56.4025 58.9772 56.4025C60.2663 56.4025 61.3113 57.4475 61.3113 58.7366Z" fill="#F9C23C"/>
<path d="M52.0472 9.67314C51.6622 9.33627 51.181 9.1197 50.6516 9.09564C49.3522 9.02345 48.2453 10.01 48.1491 11.3094C47.9806 13.9563 46.1519 18.7447 45.4541 20.3569C45.4541 20.3689 45.4481 20.381 45.4421 20.393C45.436 20.405 45.43 20.417 45.43 20.4291C45.3011 20.7469 45.1633 21.0602 45.0164 21.3687C44.7709 21.0613 44.4998 20.7799 44.2028 20.5254C43.5291 19.9238 42.7109 19.4666 41.7484 19.1538L41.6762 19.1297C38.4278 18.0469 34.8906 19.8035 33.8078 23.076C33.2784 24.6641 33.3987 26.3485 34.1447 27.8404C34.8906 29.3322 36.1659 30.4391 37.7541 30.9685C37.9247 31.0253 38.0976 31.0613 38.27 31.0777C39.4858 31.4061 40.6624 31.4174 41.795 31.1133C41.7265 31.4436 41.6468 31.7724 41.5559 32.0994C41.2191 33.3507 41.965 34.65 43.2162 34.9869C44.4675 35.3238 45.7669 34.5779 46.1037 33.3266C46.6459 31.3665 46.8809 29.3703 46.8086 27.3536C48.0605 25.7851 49.0608 24.0572 49.8094 22.1856L49.8448 22.0999C50.291 21.0204 52.6318 15.3569 52.8653 11.5741C52.8894 10.8281 52.5766 10.1303 52.0472 9.67314ZM40.3047 23.6054C40.9674 23.8262 41.6468 24.198 41.9374 25.7135C40.7523 26.814 39.9919 26.6934 39.3181 26.4688C39.2371 26.4418 39.1556 26.4195 39.0739 26.4018C38.7682 26.2581 38.5222 26.0043 38.3797 25.6988C38.1872 25.3379 38.1631 24.9288 38.3075 24.5438C38.5722 23.7497 39.4384 23.3166 40.2325 23.5813L40.3047 23.6054Z" fill="#00A6ED"/>
<path d="M43.9622 43.6976C52.1675 41.4116 60.7578 42.4463 68.1691 46.6332C69.5406 47.4272 70.0219 49.1357 69.2759 50.4832C68.5059 51.8547 66.7734 52.336 65.4019 51.566C59.3141 48.1491 52.2397 47.2829 45.5022 49.1597C39.9438 50.6997 35.1794 53.9722 31.7384 58.496C30.2706 57.4854 28.7547 56.3304 27.2628 55.031C31.4256 49.5688 37.2247 45.5744 43.9622 43.6976Z" fill="#00A6ED"/>
<path d="M40.0016 40.871C40.0016 42.3993 38.7627 43.6382 37.2344 43.6382C35.7062 43.6382 34.4672 42.3993 34.4672 40.871C34.4672 39.3427 35.7062 38.1038 37.2344 38.1038C38.7627 38.1038 40.0016 39.3427 40.0016 40.871Z" fill="#00A6ED"/>
</svg>
